<svg xmlns="http://www.w3.org/2000/svg" xmlns:xlink="http://www.w3.org/1999/xlink" width="1784" zoomAndPan="magnify" viewBox="0 0 1338 1499.999933" height="2000" preserveAspectRatio="xMidYMid meet" version="1.0"><path fill="#34ab2d" d="M 233.054688 734.621094 C 221.628906 734.621094 211.964844 743.410156 211.964844 754.832031 C 211.964844 766.257812 221.628906 775.921875 233.054688 775.921875 L 266.445312 775.921875 L 266.445312 809.316406 C 266.445312 820.738281 275.234375 829.523438 286.65625 829.523438 C 298.082031 829.523438 307.746094 820.738281 307.746094 809.316406 L 307.746094 775.921875 L 341.136719 775.921875 C 352.5625 775.921875 361.347656 766.257812 361.347656 754.832031 C 361.347656 743.410156 352.5625 734.621094 341.136719 734.621094 L 307.746094 734.621094 L 307.746094 701.230469 C 307.746094 689.804688 298.082031 680.140625 286.65625 680.140625 C 275.234375 680.140625 266.445312 689.804688 266.445312 701.230469 L 266.445312 734.621094 Z M 233.054688 734.621094 " fill-opacity="1" fill-rule="nonzero"/><path fill="#34ab2d" d="M 1010.734375 686.292969 C 1002.824219 678.382812 989.644531 678.382812 981.734375 686.292969 C 973.828125 694.199219 973.828125 707.382812 981.734375 715.289062 L 1021.277344 754.832031 L 981.734375 795.253906 C 973.828125 803.164062 973.828125 815.464844 981.734375 824.253906 C 989.644531 832.160156 1002.824219 832.160156 1010.734375 824.253906 L 1050.277344 783.832031 L 1089.820312 824.253906 C 1097.730469 832.160156 1110.910156 832.160156 1118.816406 824.253906 C 1126.726562 815.464844 1126.726562 803.164062 1118.816406 795.253906 L 1079.273438 754.832031 L 1118.816406 715.289062 C 1126.726562 707.382812 1126.726562 694.199219 1118.816406 686.292969 C 1110.910156 678.382812 1097.730469 678.382812 1089.820312 686.292969 L 1050.277344 725.835938 Z M 1010.734375 686.292969 " fill-opacity="1" fill-rule="nonzero"/><path fill="#34ab2d" d="M 608.273438 734.621094 C 596.851562 734.621094 587.183594 743.410156 587.183594 754.832031 C 587.183594 766.257812 596.851562 775.921875 608.273438 775.921875 L 729.539062 775.921875 C 740.960938 775.921875 749.75 766.257812 749.75 754.832031 C 749.75 743.410156 740.960938 734.621094 729.539062 734.621094 Z M 608.273438 734.621094 " fill-opacity="1" fill-rule="nonzero"/><path fill="#34ab2d" d="M 230.417969 1131.808594 C 218.992188 1131.808594 210.207031 1140.597656 210.207031 1152.019531 C 210.207031 1163.445312 218.992188 1172.230469 230.417969 1172.230469 L 343.773438 1172.230469 C 354.320312 1172.230469 363.984375 1163.445312 363.984375 1152.019531 C 363.984375 1140.597656 354.320312 1131.808594 343.773438 1131.808594 Z M 230.417969 1131.808594 " fill-opacity="1" fill-rule="nonzero"/><path fill="#34ab2d" d="M 306.867188 1088.753906 C 306.867188 1089.414062 306.835938 1090.074219 306.769531 1090.734375 C 306.707031 1091.390625 306.609375 1092.046875 306.480469 1092.695312 C 306.351562 1093.34375 306.1875 1093.984375 305.996094 1094.617188 C 305.804688 1095.253906 305.582031 1095.875 305.328125 1096.484375 C 305.074219 1097.097656 304.792969 1097.695312 304.480469 1098.277344 C 304.167969 1098.863281 303.828125 1099.429688 303.460938 1099.980469 C 303.09375 1100.53125 302.699219 1101.0625 302.28125 1101.574219 C 301.859375 1102.085938 301.414062 1102.574219 300.949219 1103.042969 C 300.480469 1103.511719 299.988281 1103.957031 299.476562 1104.375 C 298.964844 1104.796875 298.4375 1105.1875 297.886719 1105.558594 C 297.335938 1105.925781 296.769531 1106.265625 296.183594 1106.578125 C 295.601562 1106.886719 295.003906 1107.171875 294.390625 1107.425781 C 293.78125 1107.675781 293.15625 1107.902344 292.523438 1108.09375 C 291.890625 1108.285156 291.25 1108.445312 290.597656 1108.574219 C 289.949219 1108.703125 289.296875 1108.800781 288.636719 1108.867188 C 287.980469 1108.929688 287.320312 1108.964844 286.65625 1108.964844 C 285.996094 1108.964844 285.335938 1108.929688 284.675781 1108.867188 C 284.015625 1108.800781 283.363281 1108.703125 282.714844 1108.574219 C 282.066406 1108.445312 281.421875 1108.285156 280.789062 1108.09375 C 280.15625 1107.902344 279.535156 1107.675781 278.921875 1107.425781 C 278.3125 1107.171875 277.714844 1106.886719 277.128906 1106.578125 C 276.546875 1106.265625 275.976562 1105.925781 275.429688 1105.554688 C 274.878906 1105.1875 274.347656 1104.796875 273.835938 1104.375 C 273.324219 1103.957031 272.832031 1103.511719 272.367188 1103.042969 C 271.898438 1102.574219 271.453125 1102.085938 271.035156 1101.574219 C 270.613281 1101.0625 270.21875 1100.53125 269.851562 1099.980469 C 269.484375 1099.429688 269.144531 1098.863281 268.832031 1098.277344 C 268.519531 1097.695312 268.238281 1097.097656 267.984375 1096.484375 C 267.730469 1095.875 267.507812 1095.253906 267.316406 1094.617188 C 267.125 1093.984375 266.964844 1093.34375 266.835938 1092.695312 C 266.703125 1092.046875 266.609375 1091.390625 266.542969 1090.734375 C 266.476562 1090.074219 266.445312 1089.414062 266.445312 1088.753906 C 266.445312 1088.089844 266.476562 1087.429688 266.542969 1086.769531 C 266.609375 1086.113281 266.703125 1085.457031 266.835938 1084.808594 C 266.964844 1084.160156 267.125 1083.519531 267.316406 1082.886719 C 267.507812 1082.25 267.730469 1081.628906 267.984375 1081.015625 C 268.238281 1080.40625 268.519531 1079.808594 268.832031 1079.226562 C 269.144531 1078.640625 269.484375 1078.074219 269.851562 1077.523438 C 270.21875 1076.972656 270.613281 1076.441406 271.035156 1075.929688 C 271.453125 1075.417969 271.898438 1074.929688 272.367188 1074.460938 C 272.832031 1073.992188 273.324219 1073.546875 273.835938 1073.128906 C 274.347656 1072.707031 274.878906 1072.316406 275.429688 1071.945312 C 275.976562 1071.578125 276.546875 1071.238281 277.128906 1070.925781 C 277.714844 1070.617188 278.3125 1070.332031 278.921875 1070.078125 C 279.535156 1069.828125 280.15625 1069.601562 280.789062 1069.410156 C 281.421875 1069.21875 282.066406 1069.058594 282.714844 1068.929688 C 283.363281 1068.800781 284.015625 1068.703125 284.675781 1068.636719 C 285.335938 1068.574219 285.996094 1068.542969 286.65625 1068.542969 C 287.320312 1068.542969 287.980469 1068.574219 288.636719 1068.636719 C 289.296875 1068.703125 289.949219 1068.800781 290.601562 1068.929688 C 291.25 1069.058594 291.890625 1069.21875 292.523438 1069.410156 C 293.15625 1069.601562 293.78125 1069.828125 294.390625 1070.078125 C 295.003906 1070.332031 295.601562 1070.617188 296.183594 1070.925781 C 296.769531 1071.238281 297.335938 1071.578125 297.886719 1071.945312 C 298.4375 1072.316406 298.964844 1072.707031 299.476562 1073.128906 C 299.988281 1073.546875 300.480469 1073.992188 300.949219 1074.460938 C 301.414062 1074.929688 301.859375 1075.417969 302.28125 1075.929688 C 302.699219 1076.441406 303.09375 1076.972656 303.460938 1077.523438 C 303.828125 1078.074219 304.167969 1078.640625 304.480469 1079.226562 C 304.792969 1079.808594 305.074219 1080.40625 305.328125 1081.015625 C 305.582031 1081.628906 305.804688 1082.25 305.996094 1082.886719 C 306.1875 1083.519531 306.351562 1084.160156 306.480469 1084.808594 C 306.609375 1085.457031 306.707031 1086.113281 306.769531 1086.769531 C 306.835938 1087.429688 306.867188 1088.089844 306.867188 1088.753906 Z M 306.867188 1088.753906 " fill-opacity="1" fill-rule="nonzero"/><path fill="#34ab2d" d="M 306.867188 1215.289062 C 306.867188 1215.953125 306.835938 1216.613281 306.769531 1217.269531 C 306.707031 1217.929688 306.609375 1218.582031 306.480469 1219.234375 C 306.351562 1219.882812 306.1875 1220.523438 305.996094 1221.15625 C 305.804688 1221.789062 305.582031 1222.414062 305.328125 1223.023438 C 305.074219 1223.636719 304.792969 1224.234375 304.480469 1224.816406 C 304.167969 1225.402344 303.828125 1225.96875 303.460938 1226.519531 C 303.09375 1227.070312 302.699219 1227.601562 302.28125 1228.113281 C 301.859375 1228.625 301.414062 1229.113281 300.949219 1229.582031 C 300.480469 1230.050781 299.988281 1230.492188 299.476562 1230.914062 C 298.964844 1231.332031 298.4375 1231.726562 297.886719 1232.09375 C 297.335938 1232.460938 296.769531 1232.800781 296.183594 1233.113281 C 295.601562 1233.425781 295.003906 1233.707031 294.390625 1233.960938 C 293.78125 1234.214844 293.15625 1234.4375 292.523438 1234.628906 C 291.890625 1234.824219 291.25 1234.984375 290.597656 1235.113281 C 289.949219 1235.242188 289.296875 1235.339844 288.636719 1235.402344 C 287.980469 1235.46875 287.320312 1235.5 286.65625 1235.5 C 285.996094 1235.5 285.335938 1235.46875 284.675781 1235.402344 C 284.015625 1235.339844 283.363281 1235.242188 282.714844 1235.113281 C 282.066406 1234.984375 281.421875 1234.824219 280.789062 1234.628906 C 280.15625 1234.4375 279.535156 1234.214844 278.921875 1233.960938 C 278.3125 1233.707031 277.714844 1233.425781 277.128906 1233.113281 C 276.546875 1232.800781 275.976562 1232.460938 275.429688 1232.09375 C 274.878906 1231.726562 274.347656 1231.332031 273.835938 1230.914062 C 273.324219 1230.492188 272.832031 1230.050781 272.367188 1229.582031 C 271.898438 1229.113281 271.453125 1228.625 271.035156 1228.113281 C 270.613281 1227.601562 270.21875 1227.070312 269.851562 1226.519531 C 269.484375 1225.96875 269.144531 1225.402344 268.832031 1224.816406 C 268.519531 1224.234375 268.238281 1223.636719 267.984375 1223.023438 C 267.730469 1222.414062 267.507812 1221.789062 267.316406 1221.15625 C 267.125 1220.523438 266.964844 1219.882812 266.835938 1219.234375 C 266.703125 1218.582031 266.609375 1217.929688 266.542969 1217.269531 C 266.476562 1216.613281 266.445312 1215.953125 266.445312 1215.289062 C 266.445312 1214.628906 266.476562 1213.96875 266.542969 1213.308594 C 266.609375 1212.648438 266.703125 1211.996094 266.835938 1211.347656 C 266.964844 1210.699219 267.125 1210.054688 267.316406 1209.421875 C 267.507812 1208.789062 267.730469 1208.167969 267.984375 1207.554688 C 268.238281 1206.945312 268.519531 1206.347656 268.832031 1205.761719 C 269.144531 1205.179688 269.484375 1204.613281 269.851562 1204.0625 C 270.21875 1203.511719 270.613281 1202.980469 271.035156 1202.46875 C 271.453125 1201.957031 271.898438 1201.464844 272.367188 1201 C 272.832031 1200.53125 273.324219 1200.085938 273.835938 1199.667969 C 274.347656 1199.246094 274.878906 1198.851562 275.429688 1198.484375 C 275.976562 1198.117188 276.546875 1197.777344 277.128906 1197.464844 C 277.714844 1197.152344 278.3125 1196.871094 278.921875 1196.617188 C 279.535156 1196.363281 280.15625 1196.140625 280.789062 1195.949219 C 281.421875 1195.757812 282.066406 1195.597656 282.714844 1195.46875 C 283.363281 1195.339844 284.015625 1195.242188 284.675781 1195.175781 C 285.335938 1195.113281 285.996094 1195.078125 286.65625 1195.078125 C 287.320312 1195.078125 287.980469 1195.113281 288.636719 1195.175781 C 289.296875 1195.242188 289.949219 1195.339844 290.601562 1195.46875 C 291.25 1195.597656 291.890625 1195.757812 292.523438 1195.949219 C 293.15625 1196.140625 293.78125 1196.363281 294.390625 1196.617188 C 295.003906 1196.871094 295.601562 1197.152344 296.183594 1197.464844 C 296.769531 1197.777344 297.335938 1198.117188 297.886719 1198.484375 C 298.4375 1198.851562 298.964844 1199.246094 299.476562 1199.667969 C 299.988281 1200.085938 300.480469 1200.53125 300.949219 1201 C 301.414062 1201.464844 301.859375 1201.957031 302.28125 1202.46875 C 302.699219 1202.980469 303.09375 1203.511719 303.460938 1204.0625 C 303.828125 1204.613281 304.167969 1205.179688 304.480469 1205.761719 C 304.792969 1206.347656 305.074219 1206.945312 305.328125 1207.554688 C 305.582031 1208.167969 305.804688 1208.789062 305.996094 1209.421875 C 306.1875 1210.054688 306.351562 1210.699219 306.480469 1211.347656 C 306.609375 1211.996094 306.707031 1212.648438 306.769531 1213.308594 C 306.835938 1213.96875 306.867188 1214.628906 306.867188 1215.289062 Z M 306.867188 1215.289062 " fill-opacity="1" fill-rule="nonzero"/><path fill="#34ab2d" d="M 608.273438 1089.628906 C 596.851562 1089.628906 587.183594 1099.296875 587.183594 1110.71875 C 587.183594 1121.265625 596.851562 1130.929688 608.273438 1130.929688 L 729.539062 1130.929688 C 740.960938 1130.929688 749.75 1121.265625 749.75 1110.71875 C 749.75 1099.296875 740.960938 1089.628906 729.539062 1089.628906 Z M 608.273438 1089.628906 " fill-opacity="1" fill-rule="nonzero"/><path fill="#34ab2d" d="M 608.273438 1173.988281 C 596.851562 1173.988281 587.183594 1183.65625 587.183594 1194.199219 C 587.183594 1205.625 596.851562 1215.289062 608.273438 1215.289062 L 729.539062 1215.289062 C 740.960938 1215.289062 749.75 1205.625 749.75 1194.199219 C 749.75 1183.65625 740.960938 1173.988281 729.539062 1173.988281 Z M 608.273438 1173.988281 " fill-opacity="1" fill-rule="nonzero"/><path fill="#34ab2d" d="M 1050.277344 1071.175781 C 1066.09375 1071.175781 1081.03125 1077.328125 1090.699219 1087.875 C 1101.242188 1098.417969 1108.273438 1113.355469 1108.273438 1129.171875 L 1108.273438 1175.746094 C 1108.273438 1191.5625 1101.242188 1206.503906 1090.699219 1217.046875 C 1081.03125 1227.59375 1066.09375 1233.742188 1050.277344 1233.742188 C 1034.460938 1233.742188 1019.519531 1227.59375 1009.855469 1217.046875 C 999.308594 1206.503906 992.28125 1191.5625 992.28125 1175.746094 L 992.28125 1129.171875 C 992.28125 1113.355469 999.308594 1098.417969 1009.855469 1087.875 C 1019.519531 1077.328125 1034.460938 1071.175781 1050.277344 1071.175781 Z M 1050.277344 1115.992188 C 1046.761719 1115.992188 1043.246094 1116.871094 1041.488281 1119.507812 C 1038.851562 1122.144531 1037.097656 1125.660156 1037.097656 1129.171875 L 1037.097656 1175.746094 C 1037.097656 1179.261719 1038.851562 1182.777344 1041.488281 1185.414062 C 1043.246094 1188.050781 1046.761719 1188.929688 1050.277344 1188.929688 C 1053.792969 1188.929688 1057.308594 1188.050781 1059.0625 1185.414062 C 1061.699219 1182.777344 1063.457031 1179.261719 1063.457031 1175.746094 L 1063.457031 1129.171875 C 1063.457031 1125.660156 1061.699219 1122.144531 1059.0625 1119.507812 C 1057.308594 1116.871094 1053.792969 1115.992188 1050.277344 1115.992188 Z M 1050.277344 1115.992188 " fill-opacity="1" fill-rule="nonzero"/><path fill="#34ab2d" d="M 131.121094 295.253906 C 131.121094 238.136719 177.695312 191.5625 234.8125 191.5625 L 1102.121094 191.5625 C 1159.238281 191.5625 1206.691406 238.136719 1206.691406 295.253906 L 1206.691406 347.980469 C 1206.691406 405.097656 1159.238281 451.667969 1102.121094 451.667969 L 234.8125 451.667969 C 185.601562 451.667969 131.121094 402.460938 131.121094 347.980469 Z M 558.1875 644.113281 C 586.304688 615.992188 625.847656 598.417969 668.90625 598.417969 C 711.964844 598.417969 750.628906 615.992188 779.625 644.113281 C 807.746094 673.109375 825.320312 711.773438 825.320312 754.832031 C 825.320312 798.769531 807.746094 837.433594 779.625 865.554688 C 750.628906 893.671875 711.964844 911.246094 668.90625 911.246094 C 625.847656 911.246094 586.304688 893.671875 558.1875 865.554688 C 530.066406 837.433594 512.492188 798.769531 512.492188 754.832031 C 512.492188 711.773438 530.066406 673.109375 558.1875 644.113281 Z M 939.554688 1042.179688 C 967.675781 1013.179688 1007.21875 996.484375 1050.277344 996.484375 C 1093.335938 996.484375 1132.878906 1013.179688 1160.996094 1042.179688 C 1189.117188 1070.296875 1206.691406 1108.964844 1206.691406 1152.898438 C 1206.691406 1195.957031 1189.117188 1234.621094 1160.996094 1262.742188 C 1132.878906 1291.738281 1093.335938 1309.3125 1050.277344 1309.3125 C 1007.21875 1309.3125 967.675781 1291.738281 939.554688 1262.742188 C 911.4375 1234.621094 893.863281 1195.957031 893.863281 1152.898438 C 893.863281 1108.964844 911.4375 1070.296875 939.554688 1042.179688 Z M 175.9375 644.113281 C 204.933594 615.992188 243.597656 598.417969 286.65625 598.417969 C 329.714844 598.417969 369.257812 615.992188 397.378906 644.113281 C 425.496094 673.109375 443.070312 711.773438 443.070312 754.832031 C 443.070312 798.769531 425.496094 837.433594 397.378906 865.554688 C 369.257812 893.671875 329.714844 911.246094 286.65625 911.246094 C 243.597656 911.246094 204.933594 893.671875 175.9375 865.554688 C 147.816406 837.433594 130.242188 798.769531 130.242188 754.832031 C 130.242188 711.773438 147.816406 673.109375 175.9375 644.113281 Z M 175.9375 1042.179688 C 204.933594 1013.179688 243.597656 996.484375 286.65625 996.484375 C 329.714844 996.484375 369.257812 1013.179688 397.378906 1042.179688 C 425.496094 1070.296875 443.070312 1108.964844 443.070312 1152.898438 C 443.070312 1195.957031 425.496094 1234.621094 397.378906 1262.742188 C 369.257812 1291.738281 329.714844 1309.3125 286.65625 1309.3125 C 243.597656 1309.3125 204.933594 1291.738281 175.9375 1262.742188 C 147.816406 1234.621094 130.242188 1195.957031 130.242188 1152.898438 C 130.242188 1108.964844 147.816406 1070.296875 175.9375 1042.179688 Z M 893.863281 754.832031 C 893.863281 711.773438 911.4375 673.109375 939.554688 644.113281 C 967.675781 615.992188 1007.21875 598.417969 1050.277344 598.417969 C 1093.335938 598.417969 1132.878906 615.992188 1160.996094 644.113281 C 1189.117188 673.109375 1206.691406 711.773438 1206.691406 754.832031 C 1206.691406 798.769531 1189.117188 837.433594 1160.996094 865.554688 C 1132.878906 893.671875 1093.335938 911.246094 1050.277344 911.246094 C 1007.21875 911.246094 967.675781 893.671875 939.554688 865.554688 C 911.4375 837.433594 893.863281 798.769531 893.863281 754.832031 Z M 1066.09375 0 L 270.839844 0 C 197.027344 0 128.484375 30.753906 79.273438 79.964844 C 30.066406 129.175781 0.1875 196.835938 0.1875 271.527344 L 0.1875 1228.472656 C 0.1875 1303.164062 30.066406 1370.824219 79.273438 1420.035156 C 128.484375 1469.242188 197.027344 1500 270.839844 1500 L 1066.09375 1500 C 1140.785156 1500 1208.449219 1469.242188 1257.660156 1420.035156 C 1306.867188 1370.824219 1337.625 1303.164062 1337.625 1228.472656 L 1337.625 271.527344 C 1337.625 196.835938 1306.867188 129.175781 1257.660156 79.964844 C 1208.449219 30.753906 1140.785156 0 1066.09375 0 Z M 668.90625 996.484375 C 711.964844 996.484375 750.628906 1013.179688 779.625 1042.179688 C 807.746094 1070.296875 825.320312 1108.964844 825.320312 1152.898438 C 825.320312 1195.957031 807.746094 1234.621094 779.625 1262.742188 C 750.628906 1291.738281 711.964844 1309.3125 668.90625 1309.3125 C 625.847656 1309.3125 586.304688 1291.738281 558.1875 1262.742188 C 530.066406 1234.621094 512.492188 1195.957031 512.492188 1152.898438 C 512.492188 1108.964844 530.066406 1070.296875 558.1875 1042.179688 C 586.304688 1013.179688 625.847656 996.484375 668.90625 996.484375 Z M 668.90625 996.484375 " fill-opacity="1" fill-rule="evenodd"/></svg>