<svg xmlns="http://www.w3.org/2000/svg" xmlns:xlink="http://www.w3.org/1999/xlink" width="2000" zoomAndPan="magnify" viewBox="0 0 1500 1499.999933" height="2000" preserveAspectRatio="xMidYMid meet" version="1.0"><path fill="#ffffff" d="M 1284.617188 -3.847656 L 207.691406 -3.847656 C 91.03125 -3.847656 -3.847656 91.03125 -3.847656 207.691406 L -3.847656 1284.617188 C -3.847656 1401.277344 91.03125 1496.152344 207.691406 1496.152344 L 1284.617188 1496.152344 C 1401.277344 1496.152344 1496.152344 1401.277344 1496.152344 1284.617188 L 1496.152344 207.691406 C 1496.152344 91.03125 1401.277344 -3.847656 1284.617188 -3.847656 Z M 457.691406 1380.769531 L 207.691406 1380.769531 C 154.65625 1380.769531 111.539062 1337.648438 111.539062 1284.617188 L 111.539062 207.691406 C 111.539062 154.65625 154.65625 111.539062 207.691406 111.539062 L 457.691406 111.539062 Z M 1380.769531 1284.617188 C 1380.769531 1337.648438 1337.648438 1380.769531 1284.617188 1380.769531 L 573.078125 1380.769531 L 573.078125 111.539062 L 1284.617188 111.539062 C 1337.648438 111.539062 1380.769531 154.65625 1380.769531 207.691406 Z M 246.152344 226.921875 L 323.078125 226.921875 C 354.925781 226.921875 380.769531 252.765625 380.769531 284.617188 C 380.769531 316.464844 354.925781 342.308594 323.078125 342.308594 L 246.152344 342.308594 C 214.304688 342.308594 188.460938 316.464844 188.460938 284.617188 C 188.460938 252.765625 214.304688 226.921875 246.152344 226.921875 Z M 380.769531 515.382812 C 380.769531 547.234375 354.925781 573.078125 323.078125 573.078125 L 246.152344 573.078125 C 214.304688 573.078125 188.460938 547.234375 188.460938 515.382812 C 188.460938 483.535156 214.304688 457.691406 246.152344 457.691406 L 323.078125 457.691406 C 354.925781 457.691406 380.769531 483.535156 380.769531 515.382812 Z M 380.769531 746.152344 C 380.769531 778.003906 354.925781 803.847656 323.078125 803.847656 L 246.152344 803.847656 C 214.304688 803.847656 188.460938 778.003906 188.460938 746.152344 C 188.460938 714.304688 214.304688 688.460938 246.152344 688.460938 L 323.078125 688.460938 C 354.925781 688.460938 380.769531 714.304688 380.769531 746.152344 Z M 380.769531 746.152344 " fill-opacity="1" fill-rule="nonzero"/></svg>