<?xml version="1.0" encoding="UTF-8"?>
<svg version="1.1" xmlns="http://www.w3.org/2000/svg" width="1327" height="1093">
<path d="M0 0 C1.37467186 -0.01455482 1.37467186 -0.01455482 2.77711487 -0.02940369 C5.72775696 -0.05423043 8.67817028 -0.06691673 11.62890625 -0.07421875 C12.63429443 -0.07683716 13.63968262 -0.07945557 14.67553711 -0.08215332 C30.50703161 -0.08657306 45.70185088 0.67154496 61.19140625 4.23828125 C61.89507324 4.39312988 62.59874023 4.54797852 63.32373047 4.70751953 C75.60205647 7.51799567 85.42582683 13.50921525 92.19140625 24.23828125 C95.2034155 29.45172845 97.31990643 34.14814668 97.31166077 40.24993896 C97.31303543 41.03795395 97.3144101 41.82596893 97.31582642 42.63786316 C97.31223114 43.49310074 97.30863586 44.34833832 97.30493164 45.22949219 C97.30507767 46.13715836 97.30522369 47.04482452 97.30537415 47.97999573 C97.30467796 50.97757362 97.29689927 53.97508923 97.2890625 56.97265625 C97.28719728 59.05202195 97.28577387 61.1313881 97.28477478 63.21075439 C97.28095782 68.68191747 97.27113451 74.15305397 97.2600708 79.62420654 C97.24983906 85.20780071 97.24527338 90.79139916 97.24023438 96.375 C97.22951153 107.32943875 97.21244493 118.28385779 97.19140625 129.23828125 C98.58759689 129.69337067 98.58759689 129.69337067 100.01199341 130.15765381 C105.60432594 132.05839092 110.79491816 134.84461598 116.06640625 137.48828125 C116.68167175 137.79585358 117.29693726 138.1034259 117.93084717 138.4203186 C130.67965471 144.81241705 142.9813561 151.87053016 155.19140625 159.23828125 C156.83439954 160.21784365 158.47761745 161.19702944 160.12109375 162.17578125 C169.43056666 167.75520258 178.45803078 173.66909776 187.32714844 179.92382812 C189.10290395 181.17587994 190.88487206 182.41859263 192.66796875 183.66015625 C210.25913593 195.98557961 226.84223895 209.54931249 242.71484375 224.0078125 C244.08694551 225.24356977 245.4656617 226.47248543 246.86987305 227.67163086 C252.43385983 232.44005459 257.64231283 237.53598666 262.80981445 242.72631836 C264.25165846 244.1735251 265.69877741 245.61530151 267.14648438 247.05664062 C272.37505737 252.28112757 277.39455101 257.61544748 282.19140625 263.23828125 C283.21265832 264.39516206 284.23606417 265.55014552 285.26171875 266.703125 C306.91751816 291.24098168 325.51711304 318.33984117 341.05078125 347.12890625 C342.14958783 349.16094582 343.26252727 351.18460556 344.37890625 353.20703125 C356.19140625 374.76511897 356.19140625 374.76511897 356.19140625 380.23828125 C357.24137787 380.2282885 357.24137787 380.2282885 358.31256104 380.21809387 C364.9604763 380.15758665 371.60831294 380.11210788 378.25644302 380.08284473 C381.67303618 380.06729367 385.08939883 380.04625312 388.50585938 380.01196289 C392.44788705 379.97265242 396.38982657 379.95848485 400.33203125 379.9453125 C401.53877502 379.92982864 402.7455188 379.91434479 403.98883057 379.89839172 C414.72044187 379.89629596 424.59750757 381.84525477 434.19140625 386.73828125 C435.19868774 387.2477832 435.19868774 387.2477832 436.22631836 387.76757812 C443.27004366 391.52333898 448.68539891 396.52928747 454.19140625 402.23828125 C454.85527344 402.87121094 455.51914063 403.50414062 456.203125 404.15625 C460.22146952 408.24683442 462.83512108 412.93101694 465.44140625 417.98828125 C465.77108398 418.61951904 466.10076172 419.25075684 466.44042969 419.90112305 C472.6084931 432.48504566 472.62515745 445.09246983 472.57958984 458.77929688 C472.58366108 460.8403908 472.58900605 462.90148254 472.59552002 464.96257019 C472.60913365 470.53072454 472.60391961 476.09871113 472.59438276 481.66686821 C472.58675523 487.51086738 472.59384034 493.35485277 472.59854126 499.19885254 C472.60398982 509.01036135 472.59683082 518.82180229 472.58251953 528.63330078 C472.5661948 539.95548585 472.57148394 551.27750882 472.58799875 562.59968996 C472.60163926 572.34357729 472.60352074 582.087416 472.59568274 591.8313098 C472.59102033 597.6408882 472.59034187 603.45039056 472.60029221 609.25996399 C472.60899696 614.72332104 472.60287604 620.18647032 472.58560944 625.64980507 C472.58166329 627.64756743 472.5827463 629.64534746 472.58939743 631.64310265 C472.62980368 645.01906938 471.88751625 657.08938897 465.69140625 669.23828125 C465.35173828 669.90980225 465.01207031 670.58132324 464.66210938 671.27319336 C460.90634852 678.31691866 455.90040003 683.73227391 450.19140625 689.23828125 C449.55847656 689.90214844 448.92554688 690.56601562 448.2734375 691.25 C444.18285308 695.26834452 439.49867056 697.88199608 434.44140625 700.48828125 C433.81016846 700.81795898 433.17893066 701.14763672 432.52856445 701.48730469 C421.33913492 706.97185136 409.93025086 707.69934272 397.70703125 707.75 C396.15475075 707.76688612 394.6024836 707.7850415 393.05023193 707.80439758 C389.00622736 707.85147765 384.96227689 707.88155643 380.91809082 707.90783691 C376.77471228 707.93785696 372.63151956 707.98431234 368.48828125 708.02929688 C360.38941515 708.1148508 352.29053129 708.18240636 344.19140625 708.23828125 C332.64001207 730.47686855 332.64001207 730.47686855 321.37890625 752.86328125 C317.08554336 761.50742826 312.72434898 770.10524327 308.1784668 778.61962891 C303.86695323 786.75061455 299.79211611 794.99972503 295.69140625 803.23828125 C290.92112368 812.8219908 286.1263879 822.37917522 281.078125 831.8203125 C276.796476 839.88241412 272.75878412 848.06676517 268.69140625 856.23828125 C259.68472445 874.33299333 259.68472445 874.33299333 255.25390625 882.61328125 C250.37828158 891.72708142 245.79769041 900.98654028 241.19140625 910.23828125 C236.23727492 920.18867471 231.27206638 930.12056711 226.02734375 939.921875 C221.36253417 948.69804217 216.98528434 957.62075551 212.55685425 966.51763916 C208.16331363 975.34087437 203.72613979 984.12770941 199.078125 992.8203125 C194.40116261 1001.62676677 190.0069713 1010.57699089 185.56417847 1019.50299072 C181.00859249 1028.65192815 176.41661666 1037.77139673 171.5925293 1046.78271484 C169.05415929 1051.5385429 166.6595031 1056.35000043 164.30419922 1061.19897461 C157.47174836 1075.19869977 150.16420508 1087.06971518 134.71127319 1092.42539978 C126.95735303 1094.21609759 118.9400866 1093.79142662 111.0234375 1093.75585938 C108.99042257 1093.76128671 106.95741158 1093.76841279 104.92440796 1093.77709961 C99.4285293 1093.79526302 93.93295256 1093.78829427 88.43706894 1093.77558327 C82.67133553 1093.76541937 76.90562706 1093.77485834 71.13989258 1093.78112793 C61.4594257 1093.78839447 51.7790811 1093.77884268 42.09863281 1093.75976562 C30.92466208 1093.73799888 19.75098335 1093.74505095 8.57701969 1093.76707125 C-1.03605864 1093.78525353 -10.64904934 1093.78776973 -20.26213932 1093.77731657 C-25.99515121 1093.77109721 -31.72802609 1093.77020311 -37.46102905 1093.78346252 C-42.85220304 1093.79506155 -48.24300245 1093.78692126 -53.6341362 1093.7638855 C-55.60651403 1093.75862004 -57.57892366 1093.76007488 -59.5512886 1093.76893616 C-74.13681051 1093.82839724 -85.75006914 1092.79509586 -96.80859375 1082.23828125 C-104.95017877 1073.70976942 -108.11582493 1064.88564032 -108.30859375 1053.23828125 C-108.33651001 1052.15365601 -108.33651001 1052.15365601 -108.36499023 1051.04711914 C-108.23260045 1039.54977359 -102.13239012 1029.61878079 -96.74609375 1019.80078125 C-96.08068716 1018.57487608 -95.41589925 1017.34863491 -94.75170898 1016.12207031 C-92.78090672 1012.4885073 -90.79574378 1008.86292154 -88.80859375 1005.23828125 C-88.22368164 1004.16884277 -87.63876953 1003.0994043 -87.03613281 1001.99755859 C-83.9750048 996.40292776 -80.89969637 990.81640406 -77.80859375 985.23828125 C-79.63390625 985.49351562 -79.63390625 985.49351562 -81.49609375 985.75390625 C-86.4334567 986.43963773 -91.37333021 987.1058668 -96.31396484 987.76757812 C-98.65336191 988.08267925 -100.9922312 988.40172266 -103.33056641 988.72460938 C-112.80977346 990.0278566 -122.29850121 991.18818143 -131.80859375 992.23828125 C-132.50700378 992.31667236 -133.20541382 992.39506348 -133.92498779 992.47583008 C-184.84644627 998.12440491 -238.90914341 998.07568963 -289.80859375 992.23828125 C-290.65599121 992.14164185 -291.50338867 992.04500244 -292.37646484 991.94543457 C-308.57141576 990.08184724 -324.74907674 988.05872781 -340.80859375 985.23828125 C-340.45780762 985.88974121 -340.10702148 986.54120117 -339.74560547 987.21240234 C-339.24818848 988.13617676 -338.75077148 989.05995117 -338.23828125 990.01171875 C-337.67786133 991.05223389 -337.11744141 992.09274902 -336.54003906 993.16479492 C-335.29110115 995.48479072 -334.04307008 997.80527492 -332.79589844 1000.1262207 C-329.81815826 1005.6660417 -326.83459794 1011.20216476 -323.81240845 1016.71789551 C-322.84430361 1018.48540633 -321.87901522 1020.25442632 -320.91455078 1022.02392578 C-319.69973779 1024.25060353 -318.47956202 1026.4743659 -317.25341797 1028.69482422 C-310.78268694 1040.58824987 -308.8180519 1052.1663779 -311.4609375 1065.5390625 C-315.06655027 1076.47969866 -322.90754066 1084.96770485 -332.96968079 1090.40636444 C-342.36298068 1094.35615813 -351.97493446 1093.80079384 -361.9765625 1093.75585938 C-364.00957743 1093.76128671 -366.04258842 1093.76841279 -368.07559204 1093.77709961 C-373.5714707 1093.79526302 -379.06704744 1093.78829427 -384.56293106 1093.77558327 C-390.32866447 1093.76541937 -396.09437294 1093.77485834 -401.86010742 1093.78112793 C-411.5405743 1093.78839447 -421.2209189 1093.77884268 -430.90136719 1093.75976562 C-442.07533792 1093.73799888 -453.24901665 1093.74505095 -464.42298031 1093.76707125 C-474.03605864 1093.78525353 -483.64904934 1093.78776973 -493.26213932 1093.77731657 C-498.99515121 1093.77109721 -504.72802609 1093.77020311 -510.46102905 1093.78346252 C-515.85220304 1093.79506155 -521.24300245 1093.78692126 -526.6341362 1093.7638855 C-528.60651403 1093.75862004 -530.57892366 1093.76007488 -532.5512886 1093.76893616 C-545.99826714 1093.82375572 -556.54373294 1093.0603679 -567.54296875 1084.5078125 C-576.11615249 1075.91984741 -580.87955488 1065.64314256 -586.12109375 1054.86328125 C-587.4001834 1052.26235775 -588.68305965 1049.66332656 -589.96630859 1047.06445312 C-590.8007452 1045.37424214 -591.63409415 1043.68349372 -592.46630859 1041.9921875 C-595.19998455 1036.44192901 -598.00304631 1030.93756503 -600.93359375 1025.48828125 C-605.97390776 1016.08105092 -610.68825226 1006.5116764 -615.44342041 996.95837402 C-619.48528196 988.84138997 -623.5325253 980.73527944 -627.80859375 972.73828125 C-632.88477661 963.24492875 -637.64631196 953.59595198 -642.44287109 943.95947266 C-646.48491588 935.84212242 -650.53233224 927.7356405 -654.80859375 919.73828125 C-659.88477661 910.24492875 -664.64631196 900.59595198 -669.44287109 890.95947266 C-673.48491588 882.84212242 -677.53233224 874.7356405 -681.80859375 866.73828125 C-686.88477661 857.24492875 -691.64631196 847.59595198 -696.44287109 837.95947266 C-700.48491588 829.84212242 -704.53233224 821.7356405 -708.80859375 813.73828125 C-713.48485686 804.99284883 -717.88950532 796.11539333 -722.30859375 787.23828125 C-727.94908918 775.91106182 -733.66222739 764.6374458 -739.62402344 753.47509766 C-740.9336818 751.00207829 -742.22032652 748.51790146 -743.50390625 746.03125 C-747.77365781 737.7730148 -752.09767552 729.59304858 -756.87109375 721.61328125 C-788.27559723 668.86728906 -808.74940886 605.95123511 -809.01171875 544.203125 C-809.01868774 543.09393707 -809.02565674 541.98474915 -809.03283691 540.84194946 C-809.05012208 537.28652097 -809.05655549 533.73125 -809.05859375 530.17578125 C-809.05960083 528.96308563 -809.06060791 527.75039001 -809.06164551 526.50094604 C-809.0519084 509.20225102 -808.63016406 492.33797029 -805.80859375 475.23828125 C-805.52621115 473.3321987 -805.2449701 471.4259467 -804.96484375 469.51953125 C-801.10214406 444.44084127 -793.87959974 420.23361078 -785.80859375 396.23828125 C-786.2461499 395.83101807 -786.68370605 395.42375488 -787.13452148 395.00415039 C-816.56949012 367.58077115 -839.52356718 339.10845163 -850.68359375 299.80078125 C-850.97036987 298.79241211 -850.97036987 298.79241211 -851.26293945 297.76367188 C-854.50020948 285.59635647 -855.1852926 273.56100847 -855.12109375 261.05078125 C-855.11860626 260.27659851 -855.11611877 259.50241577 -855.11355591 258.70477295 C-855.0570534 247.33881643 -854.85359008 236.25422369 -851.80859375 225.23828125 C-851.57221191 224.38073242 -851.33583008 223.52318359 -851.09228516 222.63964844 C-846.94584675 208.12584131 -842.05113699 194.64270217 -828.28515625 186.80078125 C-817.99164046 181.4879989 -806.87397632 180.65944457 -795.49609375 182.88671875 C-785.37273333 186.25158571 -777.36050964 193.19658966 -771.80859375 202.23828125 C-766.33901336 213.59306365 -765.40310598 225.36598959 -769.54296875 237.3671875 C-769.795625 238.02589844 -770.04828125 238.68460938 -770.30859375 239.36328125 C-776.85758214 257.90195607 -773.27645755 277.08666281 -765.3125 294.51171875 C-760.79486231 303.46032482 -754.32142425 314.56306092 -745.80859375 320.23828125 C-745.53781006 319.50343506 -745.26702637 318.76858887 -744.98803711 318.01147461 C-743.85591484 315.34954604 -742.59245246 313.23038899 -740.9375 310.8671875 C-740.36878174 310.05258057 -739.80006348 309.23797363 -739.21411133 308.39868164 C-738.60591553 307.54137451 -737.99771973 306.68406738 -737.37109375 305.80078125 C-736.74291748 304.91060303 -736.11474121 304.0204248 -735.4675293 303.10327148 C-724.92256852 288.26167059 -713.37212048 274.23377929 -701.11254883 260.77758789 C-699.66132099 259.17811552 -698.21736692 257.57198366 -696.78393555 255.95654297 C-691.1431398 249.60693887 -685.26391235 243.54245437 -679.24609375 237.55078125 C-678.35212891 236.65294922 -677.45816406 235.75511719 -676.53710938 234.83007812 C-671.45605035 229.75645298 -666.27610741 224.89118876 -660.80859375 220.23828125 C-659.69061631 219.26522977 -658.57339991 218.29130305 -657.45703125 217.31640625 C-649.99947547 210.85664485 -642.40773133 204.61499785 -634.58300781 198.60498047 C-632.85618409 197.27493655 -631.14098426 195.9309137 -629.42578125 194.5859375 C-620.48349353 187.65631197 -611.14849014 181.33207372 -601.74609375 175.05078125 C-601.11968994 174.63112091 -600.49328613 174.21146057 -599.84790039 173.77908325 C-556.400792 144.72265677 -509.10766362 121.50139155 -459.80859375 104.23828125 C-459.19087097 104.0206311 -458.57314819 103.80298096 -457.93670654 103.57873535 C-405.59624716 85.1440454 -351.43796218 73.20887502 -296.30859375 66.98828125 C-295.63350769 66.91105835 -294.95842163 66.83383545 -294.26287842 66.75427246 C-289.98050468 66.27174777 -285.69505838 65.85175441 -281.4024353 65.47125244 C-279.58260969 65.30780108 -277.76349526 65.13632748 -275.94497681 64.95892334 C-259.92320193 63.42764538 -244.14529002 63.17094601 -228.0703125 63.46484375 C-226.1380807 63.4955266 -224.20583968 63.52563416 -222.27359009 63.55517578 C-206.1707347 63.80908487 -206.1707347 63.80908487 -198.44750977 64.03369141 C-193.51212064 64.17536129 -188.578808 64.2563379 -183.6416111 64.29893112 C-181.79272567 64.32574245 -179.94399883 64.37396591 -178.0963192 64.44591141 C-164.27001071 64.971059 -156.63966684 61.89101441 -146.36236 52.60697842 C-143.30862337 49.91697233 -139.86190291 47.78802962 -136.43359375 45.61328125 C-135.7384668 45.16927979 -135.04333984 44.72527832 -134.32714844 44.26782227 C-94.68718371 19.25562528 -47.42642874 0.41959915 0 0 Z M-342.37109375 166.92578125 C-343.4170874 167.19890137 -344.46308105 167.47202148 -345.54077148 167.75341797 C-356.28971642 170.69228469 -366.6165671 175.19658152 -372.91796875 184.95654297 C-379.21083035 196.01894753 -382.09263984 206.7722043 -378.68359375 219.42578125 C-375.00540275 229.93246574 -368.8047805 238.38030172 -358.9609375 243.80859375 C-345.1289299 250.3243443 -332.91722464 248.43492334 -318.63604736 244.67733765 C-314.5321094 243.6014387 -310.41441633 242.58096909 -306.296875 241.55859375 C-305.47866272 241.35479599 -304.66045044 241.15099823 -303.81744385 240.94102478 C-273.16433802 233.36442608 -240.94649166 229.01598556 -209.37109375 228.98828125 C-208.66505005 228.98760651 -207.95900635 228.98693176 -207.23156738 228.98623657 C-170.03002562 229.04176591 -132.64032133 235.49270795 -96.79882812 245.32568359 C-96.13289642 245.5080809 -95.46696472 245.69047821 -94.78085327 245.87840271 C-92.93024256 246.39038172 -91.08244905 246.91251279 -89.23486328 247.43530273 C-77.42601837 250.20281669 -67.22945374 247.77634672 -57.05859375 241.48828125 C-48.05083287 235.07488441 -41.91789931 226.13635999 -39.80859375 215.23828125 C-38.86767313 203.81892644 -40.17366477 193.73605143 -47.12109375 184.36328125 C-55.47093215 174.53889692 -64.51119579 170.27719045 -76.80859375 166.92578125 C-78.42689087 166.48129639 -78.42689087 166.48129639 -80.07788086 166.02783203 C-152.3124113 146.6090119 -225.47424976 143.02101494 -342.37109375 166.92578125 Z M125.18359375 397.36328125 C115.43838168 408.838163 113.38120786 422.69890296 114.19140625 437.23828125 C116.65521269 452.50612114 125.38574983 464.5621498 137.66015625 473.703125 C149.40063766 480.82350956 162.80545948 482.91428537 176.265625 480.7421875 C190.87410151 477.05359928 203.31615171 468.22343377 211.19140625 455.23828125 C217.28313056 441.94724639 219.71711478 427.99319584 215.15625 413.78515625 C210.15110455 400.57319335 201.01351131 388.7400794 187.91015625 382.734375 C164.07673974 373.31373402 142.59016898 378.94075805 125.18359375 397.36328125 Z " fill="#6CB14C" transform="translate(854.80859375,-0.23828125)"/>
</svg>
